<?xml version="1.0" encoding="UTF-8"?>
<svg width="985px" height="890px" viewBox="0 0 985 890" version="1.1" xmlns="http://www.w3.org/2000/svg" xmlns:xlink="http://www.w3.org/1999/xlink">
    <!-- Generator: Sketch 52.6 (67491) - http://www.bohemiancoding.com/sketch -->
    <title>spaceghoul</title>
    <desc>Created with Sketch.</desc>
    <g id="Page-1" stroke="none" stroke-width="1" fill="none" fill-rule="evenodd">
        <path d="M89.9966088,580 C67.9070917,580 50,562.096247 50,540 C50,517.90861 67.8993042,500 89.9966088,500 L162,500 C162,500 202,500 202,460 C202,420 162,420 162,420 L153.992736,420 C131.905358,420 114,402.096247 114,380 C114,357.90861 131.909225,340 153.992736,340 L212,340 C212,340 252,340 252,300 C252,260 212,260 212,260 L60.0032774,260 C37.9100774,260 20,242.096247 20,220 C20,197.90861 37.9131074,180 60.0032774,180 L292,180 C292,180 332,180 332,140 C332,100 292,100 292,100 L235.007197,100 C212.911832,100 195,82.0962473 195,60 C195,37.90861 212.916048,20 235.007197,20 L754.992803,20 C777.088168,20 795,37.9037527 795,60 C795,82.09139 777.083952,100 754.992803,100 L752,100 C752,100 712,100 712,140 C712,180 752,180 752,180 L851.996723,180 C874.089923,180 892,197.903753 892,220 C892,242.09139 874.086893,260 851.996723,260 L832,260 C832,260 792,260 792,300 C792,340 832,340 832,340 L925.007264,340 C947.094642,340 965,357.903753 965,380 C965,402.09139 947.090775,420 925.007264,420 L712,420 C712,420 672,420 672,460 C672,500 712,500 712,500 L836.003391,500 C858.092908,500 876,517.903753 876,540 C876,562.09139 858.100696,580 836.003391,580 L752,580 C752,580 712,580 712,620 C712,660 752,660 752,660 L754.999684,660 C777.091248,660 795,677.903753 795,700 C795,722.09139 777.091816,740 754.999684,740 L197.000316,740 C174.908752,740 157,722.096247 157,700 C157,677.90861 174.908184,660 197.000316,660 L232,660 C232,660 272,660 272,620 C272,580 232,580 232,580 L89.9966088,580 Z" id="Combined-Shape" fill="#292945"></path>
        <g id="stars" transform="translate(52.000000, 50.000000)" fill="#6B6BB3">
            <path d="M330,20 C330,20 330,10 340,10 C330,10 330,0 330,0 C330,0 330,10 320,10 C330,10 330,20 330,20 Z" id="Oval-4"></path>
            <path d="M590,90 C590,90 590,80 600,80 C590,80 590,70 590,70 C590,70 590,80 580,80 C590,80 590,90 590,90 Z" id="Oval-4"></path>
            <path d="M605,70 C605,70 605,65 610,65 C605,65 605,60 605,60 C605,60 605,65 600,65 C605,65 605,70 605,70 Z" id="Oval-4"></path>
            <path d="M635,260 C635,260 635,255 640,255 C635,255 635,250 635,250 C635,250 635,255 630,255 C635,255 635,260 635,260 Z" id="Oval-4"></path>
            <path d="M555,390 C555,390 555,385 560,385 C555,385 555,380 555,380 C555,380 555,385 550,385 C555,385 555,390 555,390 Z" id="Oval-4"></path>
            <path d="M725,640 C725,640 725,635 730,635 C725,635 725,630 725,630 C725,630 725,635 720,635 C725,635 725,640 725,640 Z" id="Oval-4"></path>
            <path d="M335,550 C335,550 335,545 340,545 C335,545 335,540 335,540 C335,540 335,545 330,545 C335,545 335,550 335,550 Z" id="Oval-4"></path>
            <path d="M145,500 C145,500 145,495 150,495 C145,495 145,490 145,490 C145,490 145,495 140,495 C145,495 145,500 145,500 Z" id="Oval-4"></path>
            <path d="M165,160 C165,160 165,155 170,155 C165,155 165,150 165,150 C165,150 165,155 160,155 C165,155 165,160 165,160 Z" id="Oval-4"></path>
            <path d="M365,100 C365,100 365,95 370,95 C365,95 365,90 365,90 C365,90 365,95 360,95 C365,95 365,100 365,100 Z" id="Oval-4"></path>
            <path d="M5,200 C5,200 5,195 10,195 C5,195 5,190 5,190 C5,190 5,195 0,195 C5,195 5,200 5,200 Z" id="Oval-4"></path>
            <path d="M130,330 C130,330 130,320 140,320 C130,320 130,310 130,310 C130,310 130,320 120,320 C130,320 130,330 130,330 Z" id="Oval-4"></path>
            <path d="M680,520 C680,520 680,510 690,510 C680,510 680,500 680,500 C680,500 680,510 670,510 C680,510 680,520 680,520 Z" id="Oval-4"></path>
            <path d="M220,470 C220,470 220,460 230,460 C220,460 220,450 220,450 C220,450 220,460 210,460 C220,460 220,470 220,470 Z" id="Oval-4"></path>
            <path d="M290,680 C290,680 290,670 300,670 C290,670 290,660 290,660 C290,660 290,670 280,670 C290,670 290,680 290,680 Z" id="Oval-4"></path>
        </g>
        <g id="spaceghoul" transform="translate(374.000000, 170.000000)">
            <path d="M71,257 L111,257 C111,257 111,620 111,630 C111,640 101,650 91,650 C81,650 71,640 71,630 C71,620 71,257 71,257 Z" id="Rectangle-2" fill="#1F9999"></path>
            <path d="M27,240 L67,240 C67,240 67,560 67,570 C67,580 57,590 47,590 C37,590 27,580 27,570 C27,560 27,240 27,240 Z" id="Rectangle-2" fill="#1F9999"></path>
            <path d="M168,240 L208,240 C208,240 208,470 208,480 C208,490 198,500 188,500 C178,500 168,490 168,480 C168,470 168,240 168,240 Z" id="Rectangle-2" fill="#1F9999"></path>
            <path d="M125,270 L165,270 C165,270 165,650 165,660 C165,670 155,680 145,680 C135,680 125,670 125,660 C125,650 125,270 125,270 Z" id="Rectangle-2" fill="#1F9999"></path>
            <path d="M188,290 L188,330 L188,530 C188,530 188,580 188,600 C188,610 178,620 168,620 C158,620 148,610 148,600 C148,590 148,330 148,330 C148,330 148,310 148,300 C148,290 138,290 138,300 C138,310 138,330 138,330 L138,680 C138,690 128,700 118,700 C108,700 98,690 98,680 C98,670 98,330 98,330 C98,330 98,310 98,300 C98,290 88,290 88,300 C88,310 88,330 88,330 L88,530 C88,540 78,550 68,550 C58,550 48,540 48,530 C48,520 48,330 48,330 L48,290 C48,280 48,270 28,270 C8,270 8,270 8,250 C8,230 38,220 38,210 C38,200 -12,200 18,170 C-42,60 68,7.143773e-15 118,0 C168,0 278,60 218,170 C248,200 198,200 198,210 C198,220 228,230 228,250 C228,270 228,270 208,270 C188,270 188,280 188,290 Z" id="Combined-Shape" fill="#45E6E6"></path>
            <path d="M118,230 C138,230 168.000001,210 158,190 C147.999999,170 147.999999,140 117.999999,140 C87.9999994,140 88.0000003,170 78,190 C67.9999997,210 98,230 118,230 Z" id="Oval-3" fill="#EDEDFA"></path>
            <circle id="Oval-6" fill="#D982C3" cx="118" cy="200" r="20"></circle>
            <ellipse id="Oval-2" fill="#2E2E4D" cx="118" cy="202" rx="8" ry="12"></ellipse>
            <circle id="Oval-5" fill="#1F9999" cx="193" cy="55" r="5"></circle>
            <circle id="Oval-5" fill="#1F9999" cx="108" cy="550" r="5"></circle>
            <circle id="Oval-5" fill="#1F9999" cx="115" cy="557" r="3"></circle>
            <circle id="Oval-5" fill="#1F9999" cx="181" cy="467" r="3"></circle>
            <circle id="Oval-5" fill="#1F9999" cx="13" cy="95" r="5"></circle>
            <circle id="Oval-5" fill="#1F9999" cx="180.5" cy="57.5" r="2.5"></circle>
            <circle id="Oval-5" fill="#1F9999" cx="26" cy="255" r="5"></circle>
            <circle id="Oval-5" fill="#1F9999" cx="18" cy="260" r="3"></circle>
            <circle id="Oval-5" fill="#1F9999" cx="188" cy="70" r="10"></circle>
        </g>
    </g>
</svg>